<svg xmlns="http://www.w3.org/2000/svg" aria-label="Símbolo Chamego" viewBox="1857.1 297.1 3479.8 3479.8"><path fill="#F8F5EE" fill-rule="evenodd" d="M3552 431.6c-167.7 5.9-316.8 32.7-470.6 84.8-130.1 44.1-258.4 107.2-373.4 183.9-153.1 102.1-288.9 230.9-399 378.2-180.6 241.7-288.4 525.5-313.9 826.5-7.9 92.3-7.5 193.5 1 285 27.5 297.9 134.5 576.3 313.4 815.5 47.6 63.7 93.5 116.6 152 175 34.9 34.9 58.4 56.8 92.3 85.9 107.6 92.2 231 172.1 358.7 232.4 194.4 91.6 400 142.3 618 152.2 28.4 1.3 110.6 1.3 139 0 299.9-13.6 579.7-105.3 827-271 88.5-59.4 164.7-122.1 242-199.5 34.9-34.9 56.7-58.3 86-92.5 240.9-280.9 377.9-638.8 385.4-1006.7 2-97.5-3.1-184.5-16-273.3-57.8-398.1-264.1-760.6-578.4-1016.6C4383.1 602.3 4102.9 482 3806 444.1c-39.8-5.1-77.3-8.5-123-11.1-18.2-1-112.5-2.1-131-1.4M3013 748c0 1.7-.7 2-4 2s-4 .3-4 2-.7 2-4 2-4 .3-4 2c0 1.3-.7 2-2 2s-2 .7-2 2c0 1.5-.7 2-2.5 2s-2.5.5-2.5 2c0 1.3-.7 2-2 2-1.7 0-2 .7-2 4s-.3 4-2 4c-1.3 0-2 .7-2 2s-.7 2-2 2c-1.7 0-2 .7-2 4s-.3 4-2 4-2 .7-2 4.5-.3 4.5-2 4.5-2 .7-2 4-.3 4-2 4-2 .7-2 4-.3 4-2 4c-1.8 0-2 .7-2 6s-.2 6-2 6-2 .7-2 6-.2 6-2 6-2 .7-2 8-.2 8-2 8-2 .7-2 8-.2 8-2 8-2 .7-2 8.5-.2 8.5-2 8.5c-1.9 0-2 .7-2 10s-.1 10-2 10-2 .7-2 10-.1 10-2 10-2 .7-2 16-.1 16-2 16-2 .7-2 18.5-.1 18.5-2 18.5-2 .7-2 24-.1 24-2 24c-2 0-2 .7-2 65s0 65 2 65c1.9 0 2 .7 2 24.5s.1 24.5 2 24.5 2 .7 2 16 .1 16 2 16 2 .7 2 10 .1 10 2 10 2 .7 2 12 .1 12 2 12c1.3 0 2 .7 2 2s-.7 2-2 2c-1.5 0-2 .7-2 2.5s-.5 2.5-2 2.5c-1.7 0-2 .7-2 4s-.3 4-2 4c-1.3 0-2 .7-2 2s-.7 2-2 2-2 .7-2 2-.7 2-2 2-2 .7-2 2-.7 2-2 2c-1.7 0-2 .7-2 4s-.3 4-2 4c-1.3 0-2 .7-2 2s-.7 2-2 2-2 .7-2 2c0 1.5-.7 2-2.5 2-2.2 0-2.5.4-2.5 4 0 3.3-.3 4-2 4-1.3 0-2 .7-2 2s-.7 2-2 2c-1.7 0-2 .7-2 4s-.3 4-2 4c-1.3 0-2 .7-2 2s-.7 2-2 2c-1.7 0-2 .7-2 4s-.3 4-2 4c-1.3 0-2 .7-2 2s-.7 2-2 2c-1.7 0-2 .7-2 4s-.3 4-2 4-2 .7-2 4.5-.3 4.5-2 4.5-2 .7-2 4-.3 4-2 4c-1.3 0-2 .7-2 2s-.7 2-2 2c-1.7 0-2 .7-2 4s-.3 4-2 4-2 .7-2 4-.3 4-2 4-2 .7-2 4-.3 4-2 4-2 .7-2 4-.3 4-2 4-2 .7-2 4-.3 4-2 4c-1.8 0-2 .7-2 6s-.2 6-2 6c-1.7 0-2 .7-2 4s-.3 4-2 4-2 .7-2 4.5-.3 4.5-2 4.5c-1.8 0-2 .7-2 6s-.2 6-2 6c-1.7 0-2 .7-2 4 0 3.6-.2 4-2.5 4-2.4 0-2.5.3-2.5 6 0 5.3-.2 6-2 6s-2 .7-2 6-.2 6-2 6-2 .7-2 6-.2 6-2 6-2 .7-2 6-.2 6-2 6-2 .7-2 8.5-.2 8.5-2 8.5-2 .7-2 6-.2 6-2 6c-1.9 0-2 .7-2 10s-.1 10-2 10-2 .7-2 10-.1 10-2 10-2 .7-2 12-.1 12-2 12-2 .7-2 16.5-.1 16.5-2 16.5c-2 0-2 .7-2 70.5s0 70.5 2 70.5c1.9 0 2 .7 2 14.5s.1 14.5 2 14.5 2 .7 2 12 .1 12 2 12c1.8 0 2 .7 2 8s.2 8 2 8 2 .7 2 8 .2 8 2 8 2 .7 2 6.5.2 6.5 2 6.5 2 .7 2 6 .2 6 2 6 2 .7 2 6 .2 6 2 6 2 .7 2 6 .2 6 2 6 2 .7 2 6 .2 6 2 6c1.7 0 2 .7 2 4 0 3.6.3 4 2.5 4 2.3 0 2.5.4 2.5 4 0 3.3.3 4 2 4s2 .7 2 4 .3 4 2 4 2 .7 2 4.5.3 4.5 2 4.5 2 .7 2 4 .3 4 2 4 2 .7 2 4 .3 4 2 4 2 .7 2 4 .3 4 2 4c1.3 0 2 .7 2 2s.7 2 2 2c1.7 0 2 .7 2 4s.3 4 2 4c1.3 0 2 .7 2 2s.7 2 2 2c1.7 0 2 .7 2 4s.3 4 2 4c1.3 0 2 .7 2 2s.7 2 2 2c1.7 0 2 .7 2 4s.3 4 2 4c1.3 0 2 .7 2 2s.7 2 2 2 2 .7 2 2 .7 2 2 2c1.7 0 2 .7 2 4s.3 4 2 4c1.3 0 2 .7 2 2s.7 2 2 2c1.7 0 2 .7 2 4.5s-.3 4.5-2 4.5c-1.3 0-2 .7-2 2 0 1.7-.7 2-4 2s-4 .3-4 2c0 1.3-.7 2-2 2s-2 .7-2 2-.7 2-2 2-2 .7-2 2-.7 2-2 2-2 .7-2 2-.7 2-2 2-2 .7-2 2-.7 2-2 2-2 .7-2 2-.7 2-2 2-2 .7-2 2-.7 2-2 2-2 .7-2 2c0 1.7-.7 2-4 2s-4 .3-4 2c0 1.3-.7 2-2 2s-2 .7-2 2-.7 2-2 2-2 .7-2 2-.7 2-2 2-2 .7-2 2-.7 2-2 2c-1.7 0-2 .7-2 4 0 3.6-.2 4-2.5 4-1.8 0-2.5.5-2.5 2 0 1.3-.7 2-2 2s-2 .7-2 2-.7 2-2 2-2 .7-2 2-.7 2-2 2-2 .7-2 2-.7 2-2 2c-1.5 0-2 .7-2 2.5s-.5 2.5-2 2.5c-1.7 0-2 .7-2 4s-.3 4-2 4c-1.3 0-2 .7-2 2s-.7 2-2 2-2 .7-2 2-.7 2-2 2-2 .7-2 2-.7 2-2 2c-1.7 0-2 .7-2 4s-.3 4-2 4c-1.3 0-2 .7-2 2s-.7 2-2 2c-1.7 0-2 .7-2 4s-.3 4-2 4c-1.3 0-2 .7-2 2s-.7 2-2 2-2 .7-2 2-.7 2-2 2c-1.7 0-2 .7-2 4s-.3 4-2 4-2 .7-2 4-.3 4-2 4c-1.3 0-2 .7-2 2s-.7 2-2 2c-1.7 0-2 .7-2 4s-.3 4-2 4-2 .7-2 4.5-.3 4.5-2 4.5-2 .7-2 4-.3 4-2 4-2 .7-2 4c0 3.6-.2 4-2.5 4-2.2 0-2.5.4-2.5 4 0 3.3-.3 4-2 4s-2 .7-2 4-.3 4-2 4c-1.8 0-2 .7-2 6s-.2 6-2 6-2 .7-2 6-.2 6-2 6-2 .7-2 6-.2 6-2 6-2 .7-2 6-.2 6-2 6c-1.9 0-2 .7-2 10.5s-.1 10.5-2 10.5-2 .7-2 10-.1 10-2 10-2 .7-2 12-.1 12-2 12c-2 0-2 .7-2 40.5s0 40.5 2 40.5c1.9 0 2 .7 2 16.5s.1 16.5 2 16.5c1.8 0 2 .7 2 8s.2 8 2 8 2 .7 2 8 .2 8 2 8 2 .7 2 8 .2 8 2 8 2 .7 2 6 .2 6 2 6c1.7 0 2 .7 2 4s.3 4 2 4c1.8 0 2 .7 2 6.5s.2 6.5 2 6.5c1.7 0 2 .7 2 4s.3 4 2 4 2 .7 2 4c0 3.6.3 4 2.5 4 2.3 0 2.5.4 2.5 4 0 3.3.3 4 2 4s2 .7 2 4 .3 4 2 4c1.3 0 2 .7 2 2s.7 2 2 2c1.7 0 2 .7 2 4s.3 4 2 4 2 .7 2 4 .3 4 2 4c1.3 0 2 .7 2 2s.7 2 2 2c1.7 0 2 .7 2 4s.3 4 2 4c1.3 0 2 .7 2 2s.7 2 2 2c1.7 0 2 .7 2 4s.3 4 2 4c1.3 0 2 .7 2 2s.7 2 2 2 2 .7 2 2 .7 2 2 2c1.5 0 2 .7 2 2.5s.5 2.5 2 2.5c1.7 0 2 .7 2 4s.3 4 2 4c1.3 0 2 .7 2 2s.7 2 2 2 2 .7 2 2 .7 2 2 2 2 .7 2 2 .7 2 2 2 2 .7 2 2 .7 2 2 2 2 .7 2 2 .7 2 2 2c1.7 0 2 .7 2 4s.3 4 2 4c1.3 0 2 .7 2 2s-.7 2-2 2c-1.7 0-2 .7-2 4s-.3 4-2 4-2 .7-2 4-.3 4-2 4-2 .7-2 4-.3 4-2 4-2 .7-2 4-.3 4-2 4-2 .7-2 4-.3 4-2 4-2 .7-2 4.5-.3 4.5-2 4.5c-1.8 0-2 .7-2 6s-.2 6-2 6-2 .7-2 6-.2 6-2 6-2 .7-2 8-.2 8-2 8-2 .7-2 8-.2 8-2 8c-1.9 0-2 .7-2 16.5s-.1 16.5-2 16.5-2 .7-2 18 .1 18 2 18 2 .7 2 18 .1 18 2 18 2 .7 2 12.5.1 12.5 2 12.5 2 .7 2 10 .1 10 2 10c1.8 0 2 .7 2 6s.2 6 2 6 2 .7 2 6 .2 6 2 6 2 .7 2 6 .2 6 2 6c1.7 0 2 .7 2 4.5s.3 4.5 2 4.5c1.8 0 2 .7 2 6s.2 6 2 6c1.7 0 2 .7 2 4s.3 4 2 4 2 .7 2 4 .3 4 2 4 2 .7 2 4 .3 4 2 4 2 .7 2 4 .3 4 2 4 2 .7 2 4c0 3.6.3 4 2.5 4 2.3 0 2.5.4 2.5 4 0 3.3.3 4 2 4 1.3 0 2 .7 2 2s.7 2 2 2c1.7 0 2 .7 2 4s.3 4 2 4 2 .7 2 4 .3 4 2 4c1.5 0 2 .7 2 2.5s.5 2.5 2 2.5c1.3 0 2 .7 2 2s.7 2 2 2c1.7 0 2 .7 2 4s.3 4 2 4c1.3 0 2 .7 2 2s.7 2 2 2 2 .7 2 2 .7 2 2 2c1.7 0 2 .7 2 4s.3 4 2 4c1.3 0 2 .7 2 2s.7 2 2 2 2 .7 2 2 .7 2 2 2 2 .7 2 2 .7 2 2 2c1.7 0 2 .7 2 4s.3 4 2 4c1.3 0 2 .7 2 2s.7 2 2 2 2 .7 2 2 .7 2 2 2 2 .7 2 2 .7 2 2 2 2 .7 2 2 .7 2 2 2 2 .7 2 2 .7 2 2 2 2 .7 2 2c0 1.5.7 2 2.5 2s2.5.5 2.5 2c0 1.3.7 2 2 2s2 .7 2 2 .7 2 2 2c1.5 0 2 .7 2 2.5s.5 2.5 2 2.5c1.3 0 2 .7 2 2s.7 2 2 2 2 .7 2 2 .7 2 2 2 2 .7 2 2 .7 2 2 2 2 .7 2 2 .7 2 2 2 2 .7 2 2c0 1.7.7 2 4 2s4 .3 4 2c0 1.3.7 2 2 2s2 .7 2 2 .7 2 2 2 2 .7 2 2 .7 2 2 2 2 .7 2 2c0 1.7.7 2 4 2s4 .3 4 2c0 1.3.7 2 2 2s2 .7 2 2 .7 2 2 2 2 .7 2 2 .7 2 2 2 2 .7 2 2c0 1.7.7 2 4 2s4 .3 4 2c0 1.3.7 2 2 2s2 .7 2 2c0 1.7.7 2 4.5 2s4.5.3 4.5 2c0 1.3.7 2 2 2s2 .7 2 2c0 1.7.7 2 4 2s4 .3 4 2c0 1.3.7 2 2 2s2 .7 2 2c0 1.7.7 2 4 2s4 .3 4 2c0 1.3.7 2 2 2 1.5 0 2 .7 2 2.5 0 2.2.4 2.5 4 2.5 3.3 0 4 .3 4 2s.7 2 4 2 4 .3 4 2c0 1.3.7 2 2 2s2 .7 2 2c0 1.7.7 2 4 2s4 .3 4 2 .7 2 4 2 4 .3 4 2 .7 2 4 2 4 .3 4 2 .7 2 4.5 2 4.5.3 4.5 2c0 1.3.7 2 2 2s2 .7 2 2c0 1.7.7 2 4 2s4 .3 4 2c0 1.8.7 2 6 2s6 .2 6 2c0 1.7.7 2 4 2s4 .3 4 2 .7 2 4 2 4 .3 4 2 .7 2 4 2 4 .3 4 2 .7 2 4 2 4 .3 4 2 .7 2 4 2 4 .3 4 2c0 1.8.7 2 6 2s6 .2 6 2c0 1.7.7 2 4.5 2s4.5.3 4.5 2c0 1.8.7 2 6 2s6 .2 6 2c0 1.7.7 2 4 2s4 .3 4 2c0 1.8.7 2 6 2s6 .2 6 2 .7 2 6 2c5.7 0 6 .1 6 2.5s.3 2.5 6 2.5c5.3 0 6 .2 6 2s.7 2 6 2 6 .2 6 2 .7 2 6.5 2 6.5.2 6.5 2 .7 2 8 2 8 .2 8 2 .7 2 8 2 8 .2 8 2 .7 2 6 2 6 .2 6 2 .7 2 8 2 8 .2 8 2 .7 2 8 2 8 .2 8 2c0 1.9.7 2 10.5 2s10.5.1 10.5 2 .7 2 10 2 10 .1 10 2 .7 2 12 2 12 .1 12 2 .7 2 14.5 2 14.5.1 14.5 2 .7 2 14 2 14 .1 14 2 .7 2 18 2 18 .1 18 2 .7 2 26.5 2 26.5.1 26.5 2c0 2 .7 2 91 2s91 0 91-2c0-1.9.7-2 26.5-2s26.5-.1 26.5-2 .7-2 18-2 18-.1 18-2 .7-2 16.5-2 16.5-.1 16.5-2 .7-2 12-2 12-.1 12-2 .7-2 12-2 12-.1 12-2 .7-2 10-2 10-.1 10-2 .7-2 10.5-2 10.5-.1 10.5-2c0-1.8.7-2 8-2s8-.2 8-2 .7-2 8-2 8-.2 8-2 .7-2 8-2 8-.2 8-2 .7-2 8-2 8-.2 8-2 .7-2 6.5-2 6.5-.2 6.5-2 .7-2 6-2 6-.2 6-2 .7-2 6-2 6-.2 6-2 .7-2 6-2c5.7 0 6-.1 6-2.5s.3-2.5 6-2.5c5.3 0 6-.2 6-2s.7-2 6-2 6-.2 6-2c0-1.7.7-2 4-2s4-.3 4-2c0-1.8.7-2 6.5-2s6.5-.2 6.5-2 .7-2 6-2 6-.2 6-2c0-1.7.7-2 4-2s4-.3 4-2 .7-2 4-2 4-.3 4-2c0-1.8.7-2 6-2s6-.2 6-2c0-1.7.7-2 4-2s4-.3 4-2 .7-2 4-2 4-.3 4-2 .7-2 4-2 4-.3 4-2 .7-2 4-2 4-.3 4-2 .7-2 4.5-2 4.5-.3 4.5-2 .7-2 4-2 4-.3 4-2 .7-2 4-2 4-.3 4-2 .7-2 4-2 4-.3 4-2c0-1.3.7-2 2-2s2-.7 2-2c0-1.7.7-2 4-2s4-.3 4-2 .7-2 4-2 4-.3 4-2c0-1.3.7-2 2-2s2-.7 2-2c0-1.7.7-2 4-2 3.6 0 4-.3 4-2.5 0-2.3.4-2.5 4-2.5 3.3 0 4-.3 4-2 0-1.3.7-2 2-2s2-.7 2-2c0-1.7.7-2 4-2s4-.3 4-2c0-1.3.7-2 2-2s2-.7 2-2c0-1.7.7-2 4.5-2s4.5-.3 4.5-2c0-1.3.7-2 2-2s2-.7 2-2c0-1.7.7-2 4-2s4-.3 4-2c0-1.3.7-2 2-2s2-.7 2-2 .7-2 2-2 2-.7 2-2c0-1.7.7-2 4-2s4-.3 4-2c0-1.3.7-2 2-2s2-.7 2-2 .7-2 2-2 2-.7 2-2 .7-2 2-2 2-.7 2-2c0-1.7.7-2 4-2s4-.3 4-2c0-1.3.7-2 2-2s2-.7 2-2 .7-2 2-2 2-.7 2-2 .7-2 2-2 2-.7 2-2c0-1.7.7-2 4-2s4-.3 4-2c0-1.3.7-2 2-2s2-.7 2-2c0-1.5.7-2 2.5-2s2.5-.5 2.5-2c0-1.3.7-2 2-2 1.5 0 2-.7 2-2.5s.5-2.5 2-2.5c1.3 0 2-.7 2-2s.7-2 2-2 2-.7 2-2 .7-2 2-2 2-.7 2-2 .7-2 2-2 2-.7 2-2 .7-2 2-2 2-.7 2-2 .7-2 2-2 2-.7 2-2 .7-2 2-2 2-.7 2-2 .7-2 2-2 2-.7 2-2 .7-2 2-2 2-.7 2-2 .7-2 2-2 2-.7 2-2 .7-2 2-2 2-.7 2-2 .7-2 2-2c1.7 0 2-.7 2-4s.3-4 2-4c1.3 0 2-.7 2-2s.7-2 2-2 2-.7 2-2 .7-2 2-2 2-.7 2-2 .7-2 2-2 2-.7 2-2 .7-2 2-2c1.7 0 2-.7 2-4s.3-4 2-4c1.3 0 2-.7 2-2s.7-2 2-2c1.5 0 2-.7 2-2.5 0-2 .5-2.5 2.5-2.5 2.3 0 2.5-.4 2.5-4 0-3.3.3-4 2-4 1.3 0 2-.7 2-2s.7-2 2-2 2-.7 2-2 .7-2 2-2c1.7 0 2-.7 2-4s.3-4 2-4 2-.7 2-4 .3-4 2-4c1.3 0 2-.7 2-2s.7-2 2-2c1.7 0 2-.7 2-4s.3-4 2-4 2-.7 2-4 .3-4 2-4c1.3 0 2-.7 2-2s.7-2 2-2c1.7 0 2-.7 2-4s.3-4 2-4 2-.7 2-4 .3-4 2-4 2-.7 2-4 .3-4 2-4 2-.7 2-4.5.3-4.5 2-4.5c1.8 0 2-.7 2-6s.2-6 2-6c1.7 0 2-.7 2-4s.3-4 2-4 2-.7 2-4 .3-4 2-4c1.8 0 2-.7 2-6s.2-6 2-6 2-.7 2-6 .2-6 2-6 2-.7 2-8 .2-8 2-8 2-.7 2-6.5.2-6.5 2-6.5c1.9 0 2-.7 2-10v-10h5v-10c0-9.3.1-10 2-10s2-.7 2-16 .1-16 2-16c2 0 2-.7 2-44.5s0-44.5-2-44.5c-1.9 0-2-.7-2-14.5s-.1-14.5-2-14.5-2-.7-2-12v-12h-2.5c-2.5 0-2.5-.1-2.5-8 0-7.3-.2-8-2-8s-2-.7-2-6-.2-6-2-6-2-.7-2-6.5-.2-6.5-2-6.5-2-.7-2-6-.2-6-2-6-2-.7-2-6-.2-6-2-6c-1.7 0-2-.7-2-4s-.3-4-2-4-2-.7-2-4-.3-4-2-4-2-.7-2-4-.3-4-2-4-2-.7-2-4-.3-4-2-4-2-.7-2-4-.3-4-2-4-2-.7-2-4-.3-4-2-4c-1.3 0-2-.7-2-2s-.7-2-2-2c-1.7 0-2-.7-2-4s-.3-4-2-4c-1.5 0-2-.7-2-2.5s-.5-2.5-2-2.5c-1.7 0-2-.7-2-4s-.3-4-2-4c-1.3 0-2-.7-2-2s-.7-2-2-2-2-.7-2-2-.7-2-2-2c-1.7 0-2-.7-2-4s-.3-4-2-4c-1.3 0-2-.7-2-2s-.7-2-2-2-2-.7-2-2-.7-2-2-2-2-.7-2-2c0-1.5-.7-2-2.5-2s-2.5-.5-2.5-2c0-1.3-.7-2-2-2s-2-.7-2-2-.7-2-2-2-2-.7-2-2-.7-2-2-2c-1.7 0-2-.7-2-4v-4h-4c-3.3 0-4-.3-4-2 0-1.3-.7-2-2-2s-2-.7-2-2-.7-2-2-2-2-.7-2-2-.7-2-2-2-2-.7-2-2-.7-2-2-2-2-.7-2-2-.7-2-2-2-2-.7-2-2-.7-2-2-2c-1.5 0-2-.7-2-2.5 0-2.3-.4-2.5-4-2.5-3.3 0-4-.3-4-2 0-1.3-.7-2-2-2s-2-.7-2-2-.7-2-2-2-2-.7-2-2c0-1.7-.7-2-4-2s-4-.3-4-2c0-1.3-.7-2-2-2s-2-.7-2-2c0-1.7-.7-2-4-2s-4-.3-4-2c0-1.5-.7-2-2.5-2s-2.5-.5-2.5-2c0-1.7-.7-2-4-2s-4-.3-4-2-.7-2-4-2-4-.3-4-2-.7-2-4-2-4-.3-4-2-.7-2-4-2-4-.3-4-2-.7-2-4-2-4-.3-4-2c0-1.3-.7-2-2-2s-2-.7-2-2c0-1.8-.7-2-6-2s-6-.2-6-2c0-1.7-.7-2-4-2s-4-.3-4-2-.7-2-4-2-4-.3-4-2c0-1.8-.7-2-6.5-2s-6.5-.2-6.5-2c0-1.7-.7-2-4-2s-4-.3-4-2c0-1.8-.7-2-6-2s-6-.2-6-2-.7-2-6-2-6-.2-6-2-.7-2-8-2c-7.9 0-8 0-8-2.5 0-2.4-.3-2.5-6-2.5-5.3 0-6-.2-6-2s-.7-2-8-2-8-.2-8-2-.7-2-8.5-2-8.5-.2-8.5-2c0-1.9-.7-2-10-2s-10-.1-10-2-.7-2-10-2-10-.1-10-2-.7-2-12-2-12-.1-12-2-.7-2-16.5-2-16.5-.1-16.5-2c0-2-.7-2-28.5-2s-28.5 0-28.5-2-.7-2-80.5-2-80.5 0-80.5 2-.7 2-36.5 2-36.5 0-36.5 2c0 1.9-.7 2-22.5 2s-22.5.1-22.5 2-.7 2-18 2-18 .1-18 2-.7 2-18.5 2-18.5.1-18.5 2-.7 2-14 2-14 .1-14 2-.7 2-14 2-14 .1-14 2-.7 2-14.5 2-14.5.1-14.5 2-.7 2-12 2h-12v5h-16c-15.3 0-16 .1-16 2s-.7 2-14.5 2-14.5.1-14.5 2-.7 2-18 2-18 .1-18 2-.7 2-20.5 2-20.5.1-20.5 2c0 2-.7 2-54.5 2s-54.5 0-54.5-2c0-1.9-.7-2-14-2s-14-.1-14-2c0-1.8-.7-2-8.5-2s-8.5-.2-8.5-2-.7-2-6-2-6-.2-6-2-.7-2-6-2c-5.7 0-6-.1-6-2.5 0-2.3-.4-2.5-4-2.5-3.3 0-4-.3-4-2s-.7-2-4-2-4-.3-4-2-.7-2-4-2-4-.3-4-2-.7-2-4-2-4-.3-4-2c0-1.3-.7-2-2-2s-2-.7-2-2-.7-2-2-2-2-.7-2-2-.7-2-2-2-2-.7-2-2-.7-2-2-2-2-.7-2-2-.7-2-2-2-2-.7-2-2-.7-2-2-2c-1.7 0-2-.7-2-4 0-3.6-.2-4-2.5-4-1.8 0-2.5-.5-2.5-2 0-1.3-.7-2-2-2-1.8 0-2-.7-2-6s-.2-6-2-6c-1.9 0-2-.7-2-16.5s.1-16.5 2-16.5c1.7 0 2-.7 2-4s.3-4 2-4 2-.7 2-4c0-3.6.3-4 2.5-4 1.8 0 2.5-.5 2.5-2 0-1.3.7-2 2-2s2-.7 2-2 .7-2 2-2 2-.7 2-2 .7-2 2-2 2-.7 2-2 .7-2 2-2 2-.7 2-2 .7-2 2-2 2-.7 2-2c0-1.7.7-2 4-2s4-.3 4-2c0-1.3.7-2 2-2s2-.7 2-2c0-1.7.7-2 4-2s4-.3 4-2 .7-2 4-2 4-.3 4-2c0-1.8.7-2 6-2s6-.2 6-2 .7-2 6-2 6-.2 6-2 .7-2 8.5-2 8.5-.2 8.5-2 .7-2 8-2 8-.2 8-2c0-1.9.7-2 14-2h14v-5h32.5c31.8 0 32.5 0 32.5-2s.7-2 64.5-2 64.5 0 64.5-2 .7-2 30.5-2 30.5 0 30.5-2c0-1.9.7-2 24.5-2s24.5-.1 24.5-2 .7-2 16-2 16-.1 16-2 .7-2 14-2 14-.1 14-2 .7-2 12.5-2 12.5-.1 12.5-2 .7-2 12-2 12-.1 12-2 .7-2 10-2 10-.1 10-2 .7-2 10.5-2 10.5-.1 10.5-2c0-1.8.7-2 8-2s8-.2 8-2 .7-2 8-2 8-.2 8-2 .7-2 6-2 6-.2 6-2 .7-2 8-2 8-.2 8-2 .7-2 6-2 6-.2 6-2 .7-2 8.5-2 8.5-.2 8.5-2 .7-2 6-2 6-.2 6-2 .7-2 6-2 6-.2 6-2 .7-2 6-2 6-.2 6-2 .7-2 6-2 6-.2 6-2 .7-2 6-2c5.7 0 6-.1 6-2.5 0-2.3.4-2.5 4-2.5 3.3 0 4-.3 4-2s.7-2 4.5-2 4.5-.3 4.5-2c0-1.8.7-2 6-2s6-.2 6-2c0-1.7.7-2 4-2s4-.3 4-2c0-1.8.7-2 6-2s6-.2 6-2c0-1.7.7-2 4-2s4-.3 4-2 .7-2 4-2 4-.3 4-2 .7-2 4-2 4-.3 4-2 .7-2 4-2 4-.3 4-2 .7-2 4-2 4-.3 4-2 .7-2 4-2 4-.3 4-2 .7-2 4.5-2 4.5-.3 4.5-2 .7-2 4-2 4-.3 4-2c0-1.3.7-2 2-2s2-.7 2-2c0-1.7.7-2 4-2s4-.3 4-2 .7-2 4-2 4-.3 4-2 .7-2 4-2 4-.3 4-2c0-1.3.7-2 2-2s2-.7 2-2c0-1.7.7-2 4-2s4-.3 4-2c0-1.3.7-2 2-2s2-.7 2-2c0-1.7.7-2 4-2 3.6 0 4-.3 4-2.5 0-1.8.5-2.5 2-2.5 1.3 0 2-.7 2-2 0-1.7.7-2 4-2s4-.3 4-2c0-1.5.7-2 2.5-2s2.5-.5 2.5-2c0-1.7.7-2 4-2s4-.3 4-2c0-1.3.7-2 2-2s2-.7 2-2c0-1.7.7-2 4-2s4-.3 4-2c0-1.3.7-2 2-2s2-.7 2-2 .7-2 2-2 2-.7 2-2c0-1.7.7-2 4-2s4-.3 4-2c0-1.3.7-2 2-2s2-.7 2-2 .7-2 2-2 2-.7 2-2 .7-2 2-2 2-.7 2-2c0-1.7.7-2 4-2s4-.3 4-2c0-1.3.7-2 2-2s2-.7 2-2 .7-2 2-2 2-.7 2-2 .7-2 2-2 2-.7 2-2 .7-2 2-2 2-.7 2-2c0-1.7.7-2 4-2s4-.3 4-2c0-1.5.7-2 2.5-2s2.5-.5 2.5-2c0-1.3.7-2 2-2s2-.7 2-2 .7-2 2-2c1.5 0 2-.7 2-2.5s.5-2.5 2-2.5c1.3 0 2-.7 2-2s.7-2 2-2 2-.7 2-2 .7-2 2-2 2-.7 2-2 .7-2 2-2 2-.7 2-2 .7-2 2-2 2-.7 2-2 .7-2 2-2 2-.7 2-2 .7-2 2-2 2-.7 2-2 .7-2 2-2 2-.7 2-2 .7-2 2-2 2-.7 2-2 .7-2 2-2 2-.7 2-2 .7-2 2-2 2-.7 2-2 .7-2 2-2 2-.7 2-2 .7-2 2-2 2-.7 2-2 .7-2 2-2 2-.7 2-2 .7-2 2-2 2-.7 2-2 .7-2 2-2c1.7 0 2-.7 2-4s.3-4 2-4c1.3 0 2-.7 2-2s.7-2 2-2 2-.7 2-2c0-1.5.7-2 2.5-2s2.5-.5 2.5-2c0-1.3.7-2 2-2 1.5 0 2-.7 2-2.5s.5-2.5 2-2.5c1.3 0 2-.7 2-2s.7-2 2-2c1.7 0 2-.7 2-4s.3-4 2-4c1.3 0 2-.7 2-2s.7-2 2-2 2-.7 2-2 .7-2 2-2 2-.7 2-2 .7-2 2-2c1.7 0 2-.7 2-4s.3-4 2-4c1.3 0 2-.7 2-2s.7-2 2-2c1.7 0 2-.7 2-4s.3-4 2-4c1.3 0 2-.7 2-2s.7-2 2-2 2-.7 2-2 .7-2 2-2c1.7 0 2-.7 2-4s.3-4 2-4 2-.7 2-4 .3-4 2-4c1.3 0 2-.7 2-2s.7-2 2-2c1.7 0 2-.7 2-4s.3-4 2-4c1.5 0 2-.7 2-2.5s.5-2.5 2-2.5c1.7 0 2-.7 2-4s.3-4 2-4 2-.7 2-4 .3-4 2-4 2-.7 2-4c0-3.6.3-4 2.5-4 2.3 0 2.5-.4 2.5-4 0-3.3.3-4 2-4s2-.7 2-4 .3-4 2-4c1.3 0 2-.7 2-2s.7-2 2-2c1.7 0 2-.7 2-4s.3-4 2-4c1.8 0 2-.7 2-6s.2-6 2-6c1.7 0 2-.7 2-4s.3-4 2-4 2-.7 2-4 .3-4 2-4c1.8 0 2-.7 2-6.5s.2-6.5 2-6.5c1.7 0 2-.7 2-4s.3-4 2-4c1.8 0 2-.7 2-6s.2-6 2-6 2-.7 2-6 .2-6 2-6 2-.7 2-6 .2-6 2-6 2-.7 2-6 .2-6 2-6 2-.7 2-8 .2-8 2-8 2-.7 2-8.5.2-8.5 2-8.5 2-.7 2-8 .2-8 2-8c1.9 0 2-.7 2-12s.1-12 2-12 2-.7 2-14 .1-14 2-14c2 0 2-.7 2-69s0-69-2-69c-1.9 0-2-.7-2-14s-.1-14-2-14-2-.7-2-10.5-.1-10.5-2-10.5c-1.8 0-2-.7-2-8s-.2-8-2-8-2-.7-2-8-.2-8-2-8-2-.7-2-6-.2-6-2-6c-1.7 0-2-.7-2-4s-.3-4-2-4c-1.8 0-2-.7-2-6s.2-6 2-6 2-.7 2-6.5.2-6.5 2-6.5 2-.7 2-8 .2-8 2-8 2-.7 2-8 .2-8 2-8c1.9 0 2-.7 2-10s.1-10 2-10 2-.7 2-12 .1-12 2-12 2-.7 2-14.5.1-14.5 2-14.5 2-.7 2-26 .1-26 2-26c2 0 2-.7 2-59s0-59-2-59c-1.9 0-2-.7-2-24s-.1-24-2-24-2-.7-2-18.5-.1-18.5-2-18.5-2-.7-2-12-.1-12-2-12-2-.7-2-12-.1-12-2-12-2-.7-2-10.5-.1-10.5-2-10.5-2-.7-2-10-.1-10-2-10c-1.8 0-2-.7-2-8s-.2-8-2-8-2-.7-2-6-.2-6-2-6-2-.7-2-6-.2-6-2-6c-1.7 0-2-.7-2-4s-.3-4-2-4-2-.7-2-4-.3-4-2-4-2-.7-2-4.5-.3-4.5-2-4.5-2-.7-2-4-.3-4-2-4c-1.3 0-2-.7-2-2s-.7-2-2-2c-1.7 0-2-.7-2-4s-.3-4-2-4c-1.3 0-2-.7-2-2s-.7-2-2-2-2-.7-2-2-.7-2-2-2-2-.7-2-2c0-1.7-.7-2-4.5-2s-4.5-.3-4.5-2-.7-2-4-2-4-.3-4-2c0-1.9-.7-2-24-2s-24 .1-24 2c0 1.8-.7 2-8 2s-8 .2-8 2-.7 2-8.5 2-8.5.2-8.5 2-.7 2-6 2-6 .2-6 2-.7 2-6 2-6 .2-6 2c0 1.7-.7 2-4 2s-4 .3-4 2c0 1.8-.7 2-6 2s-6 .2-6 2c0 1.7-.7 2-4 2s-4 .3-4 2-.7 2-4 2-4 .3-4 2-.7 2-4 2-4 .3-4 2-.7 2-4.5 2-4.5.3-4.5 2-.7 2-4 2c-3.6 0-4 .2-4 2.5 0 2.2-.4 2.5-4 2.5-3.3 0-4 .3-4 2 0 1.3-.7 2-2 2s-2 .7-2 2c0 1.7-.7 2-4 2s-4 .3-4 2-.7 2-4 2-4 .3-4 2-.7 2-4 2-4 .3-4 2-.7 2-4 2-4 .3-4 2c0 1.3-.7 2-2 2s-2 .7-2 2c0 1.7-.7 2-4 2s-4 .3-4 2-.7 2-4 2-4 .3-4 2c0 1.3-.7 2-2 2s-2 .7-2 2c0 1.7-.7 2-4.5 2s-4.5.3-4.5 2c0 1.3-.7 2-2 2s-2 .7-2 2c0 1.7-.7 2-4 2s-4 .3-4 2-.7 2-4 2-4 .3-4 2c0 1.3-.7 2-2 2s-2 .7-2 2-.7 2-2 2-2 .7-2 2c0 1.7-.7 2-4 2s-4 .3-4 2c0 1.3-.7 2-2 2s-2 .7-2 2c0 1.7-.7 2-4 2s-4 .3-4 2c0 1.3-.7 2-2 2s-2 .7-2 2c0 1.7-.7 2-4 2-3.6 0-4 .2-4 2.5 0 1.8-.5 2.5-2 2.5-1.3 0-2 .7-2 2s-.7 2-2 2-2 .7-2 2-.7 2-2 2-2 .7-2 2c0 1.7-.7 2-4.5 2s-4.5.3-4.5 2c0 1.3-.7 2-2 2s-2 .7-2 2-.7 2-2 2-2 .7-2 2-.7 2-2 2-2 .7-2 2c0 1.7-.7 2-4 2s-4 .3-4 2c0 1.3-.7 2-2 2s-2 .7-2 2-.7 2-2 2-2 .7-2 2-.7 2-2 2-2 .7-2 2-.7 2-2 2-2 .7-2 2c0 1.7-.7 2-4 2s-4 .3-4 2c0 1.3-.7 2-2 2s-2 .7-2 2-.7 2-2 2-2 .7-2 2-.7 2-2 2-2 .7-2 2-.7 2-2 2-2 .7-2 2-.7 2-2 2-2 .7-2 2-.7 2-2 2-2 .7-2 2-.7 2-2 2-2 .7-2 2-.7 2-2 2c-1.5 0-2 .7-2 2.5s-.5 2.5-2 2.5c-1.3 0-2 .7-2 2 0 1.5-.7 2-2.5 2s-2.5.5-2.5 2c0 1.3-.7 2-2 2s-2 .7-2 2-.7 2-2 2-2 .7-2 2-.7 2-2 2-2 .7-2 2-.7 2-2 2-2 .7-2 2-.7 2-2 2-2 .7-2 2-.7 2-2 2-2 .7-2 2c0 1.9-.7 2-10 2s-10-.1-10-2-.7-2-10-2-10-.1-10-2-.7-2-14.5-2-14.5-.1-14.5-2-.7-2-14-2-14-.1-14-2c0-2-.7-2-28.5-2s-28.5 0-28.5-2-.7-2-62.5-2-62.5 0-62.5 2c0 1.9-.7 2-22.5 2s-22.5.1-22.5 2-.7 2-18 2-18 .1-18 2-.7 2-12 2-12 .1-12 2-.7 2-12.5 2-12.5.1-12.5 2c0 1.8-.7 2-8 2s-8 .2-8 2-.7 2-8 2-8-.2-8-2c0-1.3-.7-2-2-2s-2-.7-2-2-.7-2-2-2c-1.7 0-2-.7-2-4s-.3-4-2-4c-1.3 0-2-.7-2-2s-.7-2-2-2-2-.7-2-2-.7-2-2-2-2-.7-2-2-.7-2-2-2-2-.7-2-2-.7-2-2-2-2-.7-2-2-.7-2-2-2c-1.5 0-2-.7-2-2.5 0-2-.5-2.5-2.5-2.5-1.8 0-2.5-.5-2.5-2 0-1.3-.7-2-2-2s-2-.7-2-2-.7-2-2-2-2-.7-2-2-.7-2-2-2-2-.7-2-2-.7-2-2-2-2-.7-2-2-.7-2-2-2-2-.7-2-2-.7-2-2-2-2-.7-2-2-.7-2-2-2-2-.7-2-2-.7-2-2-2-2-.7-2-2-.7-2-2-2-2-.7-2-2-.7-2-2-2-2-.7-2-2-.7-2-2-2-2-.7-2-2c0-1.7-.7-2-4-2s-4-.3-4-2c0-1.3-.7-2-2-2s-2-.7-2-2-.7-2-2-2-2-.7-2-2-.7-2-2-2-2-.7-2-2-.7-2-2-2-2-.7-2-2-.7-2-2-2-2-.7-2-2c0-1.7-.7-2-4-2s-4-.3-4-2c0-1.5-.7-2-2.5-2s-2.5-.5-2.5-2c0-1.3-.7-2-2-2-1.5 0-2-.7-2-2.5 0-2.3-.4-2.5-4-2.5-3.3 0-4-.3-4-2 0-1.3-.7-2-2-2s-2-.7-2-2-.7-2-2-2-2-.7-2-2c0-1.7-.7-2-4-2s-4-.3-4-2c0-1.3-.7-2-2-2s-2-.7-2-2c0-1.7-.7-2-4-2s-4-.3-4-2c0-1.3-.7-2-2-2s-2-.7-2-2-.7-2-2-2-2-.7-2-2c0-1.7-.7-2-4-2s-4-.3-4-2c0-1.3-.7-2-2-2s-2-.7-2-2c0-1.7-.7-2-4-2s-4-.3-4-2c0-1.3-.7-2-2-2s-2-.7-2-2c0-1.7-.7-2-4.5-2s-4.5-.3-4.5-2-.7-2-4-2-4-.3-4-2c0-1.3-.7-2-2-2s-2-.7-2-2c0-1.7-.7-2-4-2s-4-.3-4-2-.7-2-4-2-4-.3-4-2c0-1.3-.7-2-2-2s-2-.7-2-2c0-1.7-.7-2-4-2s-4-.3-4-2-.7-2-4-2-4-.3-4-2-.7-2-4-2c-3.6 0-4-.3-4-2.5 0-2.3-.4-2.5-4-2.5-3.3 0-4-.3-4-2s-.7-2-4-2-4-.3-4-2c0-1.8-.7-2-6.5-2s-6.5-.2-6.5-2c0-1.7-.7-2-4-2s-4-.3-4-2-.7-2-4-2-4-.3-4-2c0-1.8-.7-2-6-2s-6-.2-6-2c0-1.7-.7-2-4-2s-4-.3-4-2c0-1.8-.7-2-6-2s-6-.2-6-2-.7-2-6-2-6-.2-6-2-.7-2-8-2-8-.2-8-2-.7-2-8.5-2-8.5-.2-8.5-2c0-1.9-.7-2-24-2s-24 .1-24 2m656 591c0 1.9.7 2 18 2s18 .1 18 2 .7 2 12 2 12 .1 12 2c0 1.8.7 2 6 2s6 .2 6 2 .7 2 8.5 2 8.5.2 8.5 2 .7 2 6 2 6 .2 6 2c0 1.7.7 2 4 2s4 .3 4 2 .7 2 4 2 4 .3 4 2 .7 2 4 2 4 .3 4 2 .7 2 4 2 4 .3 4 2 .7 2 4 2 4 .3 4 2c0 1.3.7 2 2 2s2 .7 2 2c0 1.7.7 2 4 2 3.6 0 4 .2 4 2.5 0 2 .5 2.5 2.5 2.5 1.8 0 2.5.5 2.5 2 0 1.3.7 2 2 2s2 .7 2 2 .7 2 2 2 2 .7 2 2 .7 2 2 2 2 .7 2 2 .7 2 2 2 2 .7 2 2 .7 2 2 2 2 .7 2 2 .7 2 2 2 2 .7 2 2 .7 2 2 2c1.7 0 2 .7 2 4s.3 4 2 4c1.3 0 2 .7 2 2s.7 2 2 2c1.7 0 2 .7 2 4s.3 4 2 4 2 .7 2 4 .3 4 2 4c1.3 0 2 .7 2 2s.7 2 2 2c1.8 0 2 .7 2 6s.2 6 2 6c1.7 0 2 .7 2 4s.3 4 2 4c1.8 0 2 .7 2 6.5s.2 6.5 2 6.5 2 .7 2 8 .2 8 2 8c1.9 0 2 .7 2 10s.1 10 2 10c2 0 2 .7 2 46.5s0 46.5-2 46.5c-1.9 0-2 .7-2 14s-.1 14-2 14c-1.8 0-2 .7-2 8.5s-.2 8.5-2 8.5-2 .7-2 8-.2 8-2 8-2 .7-2 6-.2 6-2 6-2 .7-2 6-.2 6-2 6c-1.7 0-2 .7-2 4s-.3 4-2 4c-1.8 0-2 .7-2 6s-.2 6-2 6c-1.7 0-2 .7-2 4s-.3 4-2 4-2 .7-2 4.5-.3 4.5-2 4.5-2 .7-2 4-.3 4-2 4-2 .7-2 4-.3 4-2 4c-1.3 0-2 .7-2 2s-.7 2-2 2c-1.7 0-2 .7-2 4s-.3 4-2 4-2 .7-2 4-.3 4-2 4c-1.3 0-2 .7-2 2s-.7 2-2 2c-1.7 0-2 .7-2 4s-.3 4-2 4c-1.3 0-2 .7-2 2 0 1.5-.7 2-2.5 2s-2.5.5-2.5 2c0 1.3-.7 2-2 2-1.7 0-2 .7-2 4s-.3 4-2 4c-1.3 0-2 .7-2 2s-.7 2-2 2-2 .7-2 2-.7 2-2 2-2 .7-2 2-.7 2-2 2-2 .7-2 2-.7 2-2 2c-1.5 0-2 .7-2 2.5s-.5 2.5-2 2.5c-1.7 0-2 .7-2 4s-.3 4-2 4c-1.3 0-2 .7-2 2s-.7 2-2 2-2 .7-2 2-.7 2-2 2-2 .7-2 2-.7 2-2 2-2 .7-2 2-.7 2-2 2-2 .7-2 2c0 1.7-.7 2-4 2s-4 .3-4 2c0 1.3-.7 2-2 2s-2 .7-2 2-.7 2-2 2-2 .7-2 2-.7 2-2 2-2 .7-2 2-.7 2-2 2-2 .7-2 2-.7 2-2 2-2 .7-2 2c0 1.7-.7 2-4.5 2s-4.5.3-4.5 2c0 1.3-.7 2-2 2s-2 .7-2 2-.7 2-2 2-2 .7-2 2c0 1.7-.7 2-4 2s-4 .3-4 2c0 1.3-.7 2-2 2s-2 .7-2 2c0 1.7-.7 2-4 2s-4 .3-4 2-.7 2-4 2-4 .3-4 2-.7 2-4 2c-3.6 0-4 .2-4 2.5 0 2.2-.4 2.5-4 2.5-3.3 0-4 .3-4 2s-.7 2-4 2-4 .3-4 2-.7 2-4 2-4 .3-4 2-.7 2-4 2-4 .3-4 2-.7 2-4.5 2-4.5.3-4.5 2c0 1.8-.7 2-6 2s-6 .2-6 2-.7 2-6 2-6 .2-6 2-.7 2-6 2-6 .2-6 2-.7 2-6 2-6 .2-6 2-.7 2-8 2-8 .2-8 2c0 1.9-.7 2-10.5 2s-10.5.1-10.5 2-.7 2-14 2-14 .1-14 2c0 2-.7 2-32.5 2s-32.5 0-32.5-2c0-1.9-.7-2-10-2s-10-.1-10-2c0-1.8-.7-2-6-2s-6-.2-6-2-.7-2-6-2-6-.2-6-2c0-1.7-.7-2-4-2s-4-.3-4-2-.7-2-4-2-4-.3-4-2-.7-2-4.5-2-4.5-.3-4.5-2c0-1.3-.7-2-2-2s-2-.7-2-2-.7-2-2-2-2-.7-2-2c0-1.7-.7-2-4-2s-4-.3-4-2c0-1.3-.7-2-2-2s-2-.7-2-2-.7-2-2-2-2-.7-2-2-.7-2-2-2c-1.5 0-2-.7-2-2.5s-.5-2.5-2-2.5c-1.7 0-2-.7-2-4s-.3-4-2-4c-1.3 0-2-.7-2-2s-.7-2-2-2-2-.7-2-2-.7-2-2-2-2-.7-2-2-.7-2-2-2c-1.7 0-2-.7-2-4s-.3-4-2-4-2-.7-2-4-.3-4-2-4c-1.3 0-2-.7-2-2s-.7-2-2-2c-1.7 0-2-.7-2-4s-.3-4-2-4c-1.8 0-2-.7-2-6s-.2-6-2-6c-1.7 0-2-.7-2-4s-.3-4-2-4c-1.8 0-2-.7-2-6s-.2-6-2-6-2-.7-2-6.5-.2-6.5-2-6.5-2-.7-2-8c0-7.9 0-8-2.5-8s-2.5-.1-2.5-8c0-7.3-.2-8-2-8-1.9 0-2-.7-2-12s-.1-12-2-12-2-.7-2-20.5-.1-20.5-2-20.5-2-.7-2-16 .1-16 2-16 2-.7 2-24.5.1-24.5 2-24.5 2-.7 2-10 .1-10 2-10c1.8 0 2-.7 2-8 0-7.9 0-8 2.5-8s2.5-.1 2.5-8c0-7.3.2-8 2-8s2-.7 2-6 .2-6 2-6 2-.7 2-6.5.2-6.5 2-6.5c1.7 0 2-.7 2-4s.3-4 2-4c1.8 0 2-.7 2-6s.2-6 2-6c1.7 0 2-.7 2-4s.3-4 2-4 2-.7 2-4 .3-4 2-4 2-.7 2-4 .3-4 2-4 2-.7 2-4 .3-4 2-4c1.3 0 2-.7 2-2s.7-2 2-2c1.7 0 2-.7 2-4s.3-4 2-4c1.3 0 2-.7 2-2s.7-2 2-2c1.7 0 2-.7 2-4s.3-4 2-4c1.5 0 2-.7 2-2.5s.5-2.5 2-2.5c1.7 0 2-.7 2-4s.3-4 2-4c1.3 0 2-.7 2-2s.7-2 2-2 2-.7 2-2 .7-2 2-2 2-.7 2-2 .7-2 2-2 2-.7 2-2 .7-2 2-2 2-.7 2-2 .7-2 2-2c1.7 0 2-.7 2-4 0-3.6.3-4 2.5-4 1.8 0 2.5-.5 2.5-2 0-1.3.7-2 2-2s2-.7 2-2c0-1.7.7-2 4-2s4-.3 4-2c0-1.3.7-2 2-2s2-.7 2-2 .7-2 2-2 2-.7 2-2 .7-2 2-2 2-.7 2-2 .7-2 2-2 2-.7 2-2 .7-2 2-2 2-.7 2-2c0-1.7.7-2 4-2s4-.3 4-2c0-1.3.7-2 2-2s2-.7 2-2c0-1.7.7-2 4-2s4-.3 4-2c0-1.3.7-2 2-2 1.5 0 2-.7 2-2.5 0-2.3.4-2.5 4-2.5 3.3 0 4-.3 4-2s.7-2 4-2 4-.3 4-2 .7-2 4-2 4-.3 4-2 .7-2 4.5-2 4.5-.3 4.5-2 .7-2 4-2 4-.3 4-2 .7-2 4-2 4-.3 4-2c0-1.8.7-2 6-2s6-.2 6-2 .7-2 6-2 6-.2 6-2 .7-2 6-2 6-.2 6-2 .7-2 8-2 8-.2 8-2c0-1.9.7-2 12.5-2s12.5-.1 12.5-2 .7-2 18-2 18-.1 18-2 .7-2 20.5-2 20.5.1 20.5 2m93 1412c0 1.9.7 2 22 2h22v5h12.5c11.8 0 12.5.1 12.5 2s.7 2 10 2 10 .1 10 2c0 1.8.7 2 8 2s8 .2 8 2 .7 2 6 2 6 .2 6 2 .7 2 6 2 6 .2 6 2 .7 2 6 2 6 .2 6 2 .7 2 6.5 2 6.5.2 6.5 2c0 1.7.7 2 4 2s4 .3 4 2 .7 2 4 2 4 .3 4 2 .7 2 4 2 4 .3 4 2c0 1.3.7 2 2 2s2 .7 2 2c0 1.7.7 2 4 2s4 .3 4 2c0 1.3.7 2 2 2s2 .7 2 2 .7 2 2 2 2 .7 2 2c0 1.7.7 2 4 2s4 .3 4 2c0 1.3.7 2 2 2s2 .7 2 2 .7 2 2 2c1.7 0 2 .7 2 4s.3 4 2 4c1.3 0 2 .7 2 2s.7 2 2 2 2 .7 2 2 .7 2 2 2c1.7 0 2 .7 2 4.5s.3 4.5 2 4.5c1.3 0 2 .7 2 2 0 1.5.7 2 2.5 2 2.4 0 2.5.3 2.5 6 0 5.3.2 6 2 6s2 .7 2 6 .2 6 2 6c1.9 0 2 .7 2 24s-.1 24-2 24c-1.8 0-2 .7-2 6.5s-.2 6.5-2 6.5-2 .7-2 6c0 5.7-.1 6-2.5 6-1.8 0-2.5.5-2.5 2 0 1.3-.7 2-2 2-1.7 0-2 .7-2 4s-.3 4-2 4-2 .7-2 4-.3 4-2 4c-1.3 0-2 .7-2 2s-.7 2-2 2c-1.7 0-2 .7-2 4s-.3 4-2 4c-1.3 0-2 .7-2 2s-.7 2-2 2-2 .7-2 2-.7 2-2 2-2 .7-2 2-.7 2-2 2-2 .7-2 2-.7 2-2 2-2 .7-2 2-.7 2-2 2-2 .7-2 2-.7 2-2 2-2 .7-2 2-.7 2-2 2c-1.5 0-2 .7-2 2.5 0 2.2-.4 2.5-4 2.5-3.3 0-4 .3-4 2 0 1.3-.7 2-2 2s-2 .7-2 2-.7 2-2 2-2 .7-2 2c0 1.7-.7 2-4 2s-4 .3-4 2c0 1.3-.7 2-2 2s-2 .7-2 2c0 1.7-.7 2-4.5 2s-4.5.3-4.5 2c0 1.3-.7 2-2 2s-2 .7-2 2c0 1.7-.7 2-4 2s-4 .3-4 2-.7 2-4 2-4 .3-4 2-.7 2-4 2-4 .3-4 2c0 1.8-.7 2-6 2s-6 .2-6 2c0 1.7-.7 2-4 2s-4 .3-4 2-.7 2-4 2-4 .3-4 2c0 1.8-.7 2-6 2s-6 .2-6 2-.7 2-6 2-6 .2-6 2-.7 2-8.5 2-8.5.2-8.5 2-.7 2-6 2-6 .2-6 2-.7 2-8 2-8 .2-8 2-.7 2-8 2-8 .2-8 2c0 1.9-.7 2-10 2s-10 .1-10 2-.7 2-12.5 2H3721v5h-14c-13.3 0-14 .1-14 2s-.7 2-22.5 2-22.5.1-22.5 2c0 2-.7 2-54.5 2s-54.5 0-54.5-2c0-1.9-.7-2-22-2s-22-.1-22-2-.7-2-16.5-2H3462v-5h-12c-11.3 0-12-.1-12-2s-.7-2-10-2-10-.1-10-2c0-1.8-.7-2-8.5-2s-8.5-.2-8.5-2-.7-2-8-2-8-.2-8-2-.7-2-8-2-8-.2-8-2-.7-2-6-2-6-.2-6-2-.7-2-6-2-6-.2-6-2-.7-2-6-2-6-.2-6-2-.7-2-6.5-2-6.5-.2-6.5-2-.7-2-6-2-6-.2-6-2c0-1.7-.7-2-4-2s-4-.3-4-2-.7-2-4-2-4-.3-4-2-.7-2-4-2-4-.3-4-2-.7-2-4-2-4-.3-4-2-.7-2-4-2-4-.3-4-2-.7-2-4-2-4-.3-4-2-.7-2-4-2-4-.3-4-2c0-1.3-.7-2-2-2s-2-.7-2-2c0-1.7-.7-2-4.5-2s-4.5-.3-4.5-2c0-1.3-.7-2-2-2s-2-.7-2-2c0-1.7-.7-2-4-2-3.6 0-4-.3-4-2.5 0-1.8-.5-2.5-2-2.5-1.3 0-2-.7-2-2s-.7-2-2-2-2-.7-2-2c0-1.7-.7-2-4-2s-4-.3-4-2c0-1.3-.7-2-2-2s-2-.7-2-2-.7-2-2-2-2-.7-2-2-.7-2-2-2-2-.7-2-2-.7-2-2-2-2-.7-2-2-.7-2-2-2-2-.7-2-2-.7-2-2-2-2-.7-2-2-.7-2-2-2-2-.7-2-2-.7-2-2-2-2-.7-2-2-.7-2-2-2c-1.7 0-2-.7-2-4s-.3-4-2-4c-1.3 0-2-.7-2-2s-.7-2-2-2c-1.7 0-2-.7-2-4s-.3-4-2-4-2-.7-2-4-.3-4-2-4-2-.7-2-4c0-3.6-.2-4-2.5-4s-2.5-.4-2.5-4.5c0-3.8-.3-4.5-2-4.5-1.8 0-2-.7-2-6s-.2-6-2-6c-2 0-2-.7-2-30s0-30 2-30c1.8 0 2-.7 2-8.5s.2-8.5 2-8.5c1.7 0 2-.7 2-4 0-3.6.3-4 2.5-4 2.3 0 2.5-.4 2.5-4 0-3.3.3-4 2-4s2-.7 2-4 .3-4 2-4 2-.7 2-4 .3-4 2-4c1.3 0 2-.7 2-2s.7-2 2-2c1.7 0 2-.7 2-4s.3-4 2-4c1.3 0 2-.7 2-2 0-1.9.7-2 14-2s14-.1 14-2c0-2 .7-2 38.5-2s38.5 0 38.5-2 .7-2 28.5-2 28.5 0 28.5-2c0-1.9.7-2 24-2s24-.1 24-2 .7-2 26.5-2 26.5-.1 26.5-2 .7-2 20-2 20-.1 20-2 .7-2 24.5-2h24.5v-5h28.5c27.8 0 28.5 0 28.5-2s.7-2 87-2 87 0 87 2"/></svg>